<?xml version="1.0" encoding="utf-8"?>
<!-- Generator: Adobe Illustrator 16.0.0, SVG Export Plug-In . SVG Version: 6.00 Build 0)  -->
<!DOCTYPE svg PUBLIC "-//W3C//DTD SVG 1.1//EN" "http://www.w3.org/Graphics/SVG/1.1/DTD/svg11.dtd">
<svg version="1.1" id="Layer_1" xmlns="http://www.w3.org/2000/svg" xmlns:xlink="http://www.w3.org/1999/xlink" x="0px" y="0px"
	 width="728.5px" height="692px" viewBox="0 -188.834 728.5 692" enable-background="new 0 -188.834 728.5 692"
	 xml:space="preserve">
<g>
	<g>
		<defs>
			<rect id="SVGID_1_" x="108.25" y="-13.5" width="512" height="341.332"/>
		</defs>
		<clipPath id="SVGID_2_">
			<use xlink:href="#SVGID_1_"  overflow="visible"/>
		</clipPath>
		<path clip-path="url(#SVGID_2_)" fill="#16225F" d="M449.583,229.699c0-6.4-6.399-10.666-12.8-8.533
			c-6.4,0-10.667,6.399-8.533,12.8c2.133,14.935,19.2,25.601,42.666,27.733v10.667c0,6.399,4.268,10.667,10.667,10.667
			s10.667-4.268,10.667-10.667v-8.533c25.602-2.134,42.666-14.935,42.666-32c0-21.334-25.6-27.732-42.666-29.867v-21.332
			c12.801,2.133,21.333,6.399,21.333,10.666c0,6.399,6.399,10.666,12.8,8.533c6.4,0,10.668-6.399,8.533-12.8
			c-2.133-14.934-19.199-25.601-42.666-27.733v-10.667c0-6.4-4.268-10.667-10.667-10.667s-10.667,4.267-10.667,10.667V159.3
			c-25.6,2.134-42.666,14.934-42.666,32c0,19.199,25.602,25.601,42.666,27.733v21.333
			C458.116,238.232,449.583,233.966,449.583,229.699 M492.25,223.299c21.333,4.268,21.333,8.534,21.333,8.534
			c0,2.133-6.399,6.398-21.333,10.666V223.299z M449.583,189.166c0-2.133,8.533-8.532,21.333-10.667v19.2
			C449.583,193.434,449.583,189.166,449.583,189.166"/>
	</g>
	<g>
		<defs>
			<rect id="SVGID_3_" x="108.25" y="-13.5" width="512" height="341.332"/>
		</defs>
		<clipPath id="SVGID_4_">
			<use xlink:href="#SVGID_3_"  overflow="visible"/>
		</clipPath>
		<path clip-path="url(#SVGID_4_)" fill="#16225F" d="M566.917-13.5H161.583c-29.866,0-53.333,23.466-53.333,53.333v234.666
			c0,29.866,23.467,53.333,53.334,53.333h405.333c29.866,0,53.333-23.467,53.333-53.333V39.833
			C620.25,9.966,596.783-13.5,566.917-13.5 M236.25,306.498h-74.667c-17.067,0-32-14.933-32-31.999V114.5h89.6
			c-12.801,12.8-25.6,32-25.6,53.333c0,6.398,4.266,10.666,10.666,10.666s10.667-4.268,10.667-10.666
			c0-12.8,10.667-29.867,21.333-40.534L236.25,306.498L236.25,306.498z M182.917,61.167c-2.133-4.268,2.133-8.533,6.4-14.935
			c4.267-4.267,8.533-6.398,12.8-6.398h2.133c10.666,4.267,21.333,27.732,27.733,49.065C210.65,82.5,187.184,71.833,182.917,61.167
			 M236.25,41.966c-6.4-10.667-14.933-19.2-25.6-23.467c-8.533-2.133-21.333-2.133-36.266,12.8
			c-14.933,14.934-14.933,27.734-12.8,36.267c2.133,10.667,12.8,19.2,23.466,25.602h-55.467V39.833c0-17.066,14.933-32,32-32h74.667
			V41.966z M598.917,274.499c0,17.066-14.934,31.999-32,31.999H257.583V127.299c10.666,10.667,21.333,25.601,21.333,40.534
			c0,6.398,4.268,10.666,10.667,10.666s10.666-4.268,10.666-10.666c0.001-21.333-12.799-40.534-25.599-53.333h324.267V274.499z
			 M261.85,88.899c6.4-21.333,17.067-44.8,27.734-49.065h2.133c4.268,0,8.533,2.133,12.801,6.398
			c6.399,6.4,8.532,10.667,6.399,14.935C306.65,71.833,283.184,82.5,261.85,88.899 M598.917,93.167H308.784
			c10.666-6.4,19.198-14.935,23.466-25.601c2.134-8.532,2.134-21.334-12.8-36.267c-14.933-14.934-27.733-14.934-36.267-12.8
			c-10.666,2.133-19.199,12.8-25.6,23.466V7.833h309.333c17.066,0,32,14.933,32,32V93.167z"/>
	</g>
</g>
</svg>
