<?xml version="1.0" encoding="utf-8"?>
<!-- Generator: Adobe Illustrator 16.0.0, SVG Export Plug-In . SVG Version: 6.00 Build 0)  -->
<!DOCTYPE svg PUBLIC "-//W3C//DTD SVG 1.1//EN" "http://www.w3.org/Graphics/SVG/1.1/DTD/svg11.dtd">
<svg version="1.1" id="Layer_1" xmlns="http://www.w3.org/2000/svg" xmlns:xlink="http://www.w3.org/1999/xlink" x="0px" y="0px"
	 width="496px" height="496px" viewBox="0 0 496 496" enable-background="new 0 0 496 496" xml:space="preserve">
<path fill="#B1182E" d="M72,280h112V176H72V280z M168,240h-32v-24h32V240z M88,192h80v8h-48v56h48v8H88V192z"/>
<rect x="96" y="208" fill="#B1182E" width="16" height="16"/>
<rect x="96" y="232" fill="#B1182E" width="16" height="16"/>
<g>
	<g>
		<defs>
			<rect id="SVGID_1_" y="0" width="496" height="496"/>
		</defs>
		<clipPath id="SVGID_2_">
			<use xlink:href="#SVGID_1_"  overflow="visible"/>
		</clipPath>
		<path clip-path="url(#SVGID_2_)" fill="#B1182E" d="M496,160V0H272v152v8v48h-16.448c-2.752-24.792-18.136-45.809-39.552-56.48V88
			c0-48.521-39.48-88-88-88S40,39.48,40,88v63.6C16.336,163.408,0,187.8,0,216v80c0,26.472,21.528,48,48,48v152h160V270.632
			c2.504,0.88,5.192,1.368,8,1.368h56v224h16V272c17.648,0,32-14.353,32-32c0-17.648-14.352-32-32-32v-48H496z M56,88
			c0-39.704,32.296-72,72-72s72,32.296,72,72v57.863c-5.152-1.176-10.496-1.863-16-1.863h-25.088C178.616,133.08,192,112.08,192,88
			c0-35.288-28.712-64-64-64S64,52.712,64,88c0,24.08,13.384,45.08,33.088,56H72c-5.504,0-10.848,0.68-16,1.855V88z M160,68
			c0,6.616-5.384,12-12,12s-12-5.384-12-12s5.384-12,12-12S160,61.384,160,68 M120,68c0,15.439,12.56,28,28,28
			c12.464,0,22.928-8.24,26.544-19.521C175.456,80.176,176,84.024,176,88c0,26.472-21.528,48-48,48s-48-21.528-48-48
			c0-26.473,21.528-48,48-48c3.976,0,7.824,0.544,11.52,1.456C128.24,45.072,120,55.536,120,68 M16,296h32v32
			C30.352,328,16,313.648,16,296 M96,336v-8h24v8h16v-8h24v8h16v-8h16v64h-16v16h16v40h-56v-40h24v-16h-24v-32h-16v32h-16v16h16v40
			H64v-40h24v-16H64v-64h16v8H96z M64,464h56v16H64V464z M136,464h56v16h-56V464z M208,248v-48h-16v112h-16v-8h-16v8h-24v-8h-16v8
			H96v-8H80v8H64V200H48v80H16v-64c0-30.872,25.128-56,56-56h112c30.872,0,56,25.128,56,56v8v32h-24
			C211.584,256,208,252.416,208,248 M256,224h16v32h-16V224z M304,240c0,8.824-7.176,16-16,16v-32C296.824,224,304,231.176,304,240
			 M288,80.932h192V144H288V80.932z M288,64h192v32H288V64z M480,84H288V16h192V84z"/>
	</g>
</g>
</svg>
