<?xml version="1.0" encoding="utf-8"?>
<!-- Generator: Adobe Illustrator 16.0.0, SVG Export Plug-In . SVG Version: 6.00 Build 0)  -->
<!DOCTYPE svg PUBLIC "-//W3C//DTD SVG 1.1//EN" "http://www.w3.org/Graphics/SVG/1.1/DTD/svg11.dtd">
<svg version="1.1" id="Layer_1" xmlns="http://www.w3.org/2000/svg" xmlns:xlink="http://www.w3.org/1999/xlink" x="0px" y="0px"
	 width="572.845px" height="215.28px" viewBox="0 0 572.845 215.28" enable-background="new 0 0 572.845 215.28"
	 xml:space="preserve">
<g>
	<defs>
		<rect id="SVGID_1_" width="572.845" height="215.28"/>
	</defs>
	<clipPath id="SVGID_2_">
		<use xlink:href="#SVGID_1_"  overflow="visible"/>
	</clipPath>
	<path clip-path="url(#SVGID_2_)" fill="#001E61" d="M518.43,87.219c-1.107,0-2.089,0.221-2.442,1.951c0,0-3.099,7.264-8.563,10.058
		c-2.497,1.273-3.563,1.937-9.214,1.771h-28.536c-15.426-1.106-17.019-17.252-17.019-17.252c0-1.965-0.214-4.567-0.214-5.687V59.742
		c0.422-16.506,13.241-20.283,13.241-20.283c1.84-0.595,4.946-0.595,6.039-0.595h28.528c12.971,0.415,16.367,14.555,16.367,14.555
		c0.506,1.01,1.321,1.771,2.422,1.771h51.813c1.093,0,1.992-0.899,1.992-2.006v-5.548C572.098,9.27,537.219-0.028,529.969,0.151
		C528.024,0.18,525.313,0,524.214,0h-80.606c-24.537,0.111-38.456,18.207-43.395,30.618c-2.151,5.451-2.81,10.156-2.906,12.12
		c-0.097,2.241-0.29,5.825-0.29,6.931v42.517c2.241,40.607,37.46,47.428,42.773,47.608c1.763,0.041,4.737,0.166,5.857,0.166h80.593
		c36.81-1.937,46.314-34.216,46.474-44.523c0.055-3.002,0.131-4.164,0.131-5.271v-0.913c0-1.121-0.899-2.034-1.992-2.034H518.43z"/>
	<path clip-path="url(#SVGID_2_)" fill="#001E61" d="M203.846,3.652c0.553-0.968,0.104-1.729-0.99-1.729H2.242
		c-1.107,0-2.013,0.899-2.013,1.992v38.601c0,1.107,0.906,2.006,2.013,2.006h49.192c1.1,0,1.999,0.899,1.999,2.007v89.376
		c0,1.108,0.906,2.007,2.006,2.007h77.437c1.108,0,2.007-0.898,2.007-2.007V46.529c0-1.108,0.892-2.007,1.985-2.007h40.621
		c1.086,0,2.456-0.789,3.023-1.743L203.846,3.652z"/>
	<path clip-path="url(#SVGID_2_)" fill="#001E61" d="M236.2,1.923c-1.107,0-2.615,0.664-3.341,1.481
		c0,0-35.572,35.362-35.482,84.534c0.035,30.369,12.452,48.383,12.452,48.383c0.692,0.844,2.138,1.591,3.23,1.591h50.749
		c1.1,0,1.426-0.691,0.733-1.55c0,0-16.367-20.836-16.069-49.185c0.242-25.444,15.253-41.41,15.253-41.41
		c0.644-0.885,2.104-1.604,3.182-1.604h31.933c1.1,0,2.006,0.899,2.006,2.006v89.737c0,1.107,0.893,2.006,2,2.006h72.145
		c1.121,0,2.027-0.898,2.027-2.006V3.915c0-1.093-0.906-1.992-2.027-1.992H236.2z"/>
	<path clip-path="url(#SVGID_2_)" fill="#CF0A2C" d="M248.472,87.191c0,5.645,0.608,10.958,1.604,15.911h103.56l13.614-21.431H248.7
		C248.548,83.469,248.472,85.31,248.472,87.191"/>
	<path clip-path="url(#SVGID_2_)" fill="#CF0A2C" d="M252.124,65.884c-1.398,3.97-2.518,8.357-3.147,13.116h119.996l8.321-13.116
		H252.124z"/>
	<path clip-path="url(#SVGID_2_)" fill="#001E61" d="M0,159.993c0-1.079,0.9-2.006,2.006-2.006h568.598c1.106,0,2,0.927,2,2.006
		v53.268c0,1.121-0.894,2.02-2,2.02H2.006C0.9,215.28,0,214.381,0,213.26V159.993z"/>
	<polygon clip-path="url(#SVGID_2_)" fill="#FFFFFF" points="52.914,175.71 44.309,175.71 44.309,205.179 38.622,205.179 
		38.622,175.71 29.981,175.71 29.981,170.978 53.667,170.978 	"/>
	<path clip-path="url(#SVGID_2_)" fill="#FFFFFF" d="M97.305,205.179l-2.767-8.993H83.47l-2.76,8.993h-5.888l11.221-34.214h6.558
		l10.937,34.214H97.305z M93.258,191.442c-1.522-5.161-2.926-10.101-4.046-14.832c-1.447,5.133-2.934,10.087-4.345,14.832H93.258z"
		/>
	<path clip-path="url(#SVGID_2_)" fill="#FFFFFF" d="M144.374,205.677c-4.552,0-8.163-1.729-10.813-4.952
		c-2.58-3.1-3.929-7.265-3.929-12.051c0-4.082,0.761-7.471,2.276-10.335c2.587-4.897,7.277-7.873,12.618-7.873
		c3.32,0,6.482,0.996,8.509,2.685l-2.629,3.693c-1.812-1.342-3.715-1.923-5.832-1.923c-2.919,0-5.34,1.48-6.813,4.109
		c-1.183,2.076-1.786,4.938-1.786,8.966c0,4.081,0.43,6.461,1.336,8.398c1.473,3.251,4.302,4.828,7.616,4.828
		c2.429,0,4.213-0.622,6.122-2.173l2.684,3.611C151.049,204.696,148.04,205.677,144.374,205.677"/>
	<path clip-path="url(#SVGID_2_)" fill="#FFFFFF" d="M207.478,174.423l-1.591,0.402c-0.65,0.138-1.398,0.304-1.937,0.857
		c-0.491,0.471-0.837,1.411-1.038,2.213l-0.886,3.542c-0.338,1.439-0.636,2.878-2.033,4.165c-0.637,0.595-1.481,1.078-2.415,1.369
		v0.11c0.685,0.25,1.419,0.595,2.152,1.231c1.245,1.19,1.743,2.436,2.151,3.931l1.536,5.478c0.332,1.259,0.678,2.021,1.128,2.421
		c0.401,0.401,1.342,0.831,2.075,1.038l1.494,0.443l-1.045,4.012l-1.874-0.207c-1.633-0.152-3.915-0.457-5.451-1.924
		c-1.28-1.286-1.529-3.016-1.813-4.455l-1.148-5.243c-0.256-1.038-0.643-2.504-1.584-3.361c-1.031-0.941-2.421-1.053-3.369-1.053
		h-3.259v15.786h-5.679v-34.214h5.679v13.793h3.777c1.08,0,2.408-0.083,3.452-1.079c0.893-0.898,1.121-2.241,1.363-3.209
		l0.955-4.165c0.256-1.135,0.65-2.781,1.826-3.888c1.156-1.148,2.435-1.301,4.4-1.605l2.034-0.29L207.478,174.423z"/>
	<path clip-path="url(#SVGID_2_)" fill="#FFFFFF" d="M248.845,205.678c-9.74,0-14.548-7.527-14.548-17.641
		c0-11.233,5.742-17.571,14.313-17.571c9.623,0,14.272,7.679,14.272,17.612C262.882,198.76,257.742,205.678,248.845,205.678
		 M248.7,174.825c-5.894,0-8.066,4.648-8.066,12.813c0,8.799,2.235,13.697,8.211,13.697c5.092,0,7.714-3.765,7.714-12.965
		C256.559,180.055,254.823,174.825,248.7,174.825"/>
	<path clip-path="url(#SVGID_2_)" fill="#FFFFFF" d="M320.88,205.179l-1.585-21.21c-0.152-2.171-0.242-4.896-0.242-5.921
		c-0.24,1.121-0.69,3.308-1.328,5.479l-6.239,21.651h-4.835l-5.7-20.712c-0.644-2.268-1.301-5.34-1.501-6.487
		c0,1.147-0.18,4.427-0.313,6.529l-1.515,20.67h-5.576l3.121-34.215h7.574l5.244,19.397c0.768,2.864,1.071,4.773,1.266,5.825
		c0.159-1.052,0.595-3.376,1.245-5.741l5.382-19.481h7.562l3.044,34.215H320.88z"/>
	<path clip-path="url(#SVGID_2_)" fill="#FFFFFF" d="M377.675,170.978l-0.734,4.635h-14.139v9.104h4.745
		c2.566,0,6.938,0,9.988,2.961c2.423,2.38,2.775,5.589,2.775,7.526c0,1.909-0.319,4.635-2.415,6.808
		c-2.843,2.932-7.284,3.168-10.598,3.168h-10.177v-34.202H377.675z M367.644,200.517c2.574,0,4.061-0.761,4.843-1.536
		c1.3-1.203,1.501-2.946,1.501-4.066c0-2.146-0.754-3.376-1.501-4.082c-1.329-1.272-3.313-1.48-4.843-1.48h-4.842v11.165H367.644z"
		/>
	<path clip-path="url(#SVGID_2_)" fill="#FFFFFF" d="M428.887,205.179l-2.76-8.993h-11.068l-2.768,8.993h-5.895l11.221-34.214h6.586
		l10.931,34.214H428.887z M424.847,191.442c-1.543-5.161-2.919-10.101-4.033-14.832c-1.46,5.133-2.947,10.087-4.372,14.832H424.847z
		"/>
	<polygon clip-path="url(#SVGID_2_)" fill="#FFFFFF" points="480.063,205.179 480.063,189.353 468.4,189.353 468.4,205.179 
		462.722,205.179 462.722,170.964 468.4,170.964 468.4,184.717 480.063,184.717 480.063,170.964 485.751,170.964 485.751,205.179 	
		"/>
	<path clip-path="url(#SVGID_2_)" fill="#FFFFFF" d="M541.979,174.423l-1.592,0.402c-0.637,0.138-1.384,0.304-1.923,0.857
		c-0.505,0.471-0.845,1.411-1.045,2.213l-0.893,3.542c-0.338,1.439-0.629,2.878-2.026,4.165c-0.63,0.595-1.48,1.078-2.414,1.369
		v0.11c0.691,0.25,1.432,0.595,2.138,1.231c1.272,1.19,1.771,2.436,2.165,3.931l1.521,5.478c0.332,1.259,0.692,2.021,1.149,2.421
		c0.4,0.401,1.327,0.831,2.074,1.038l1.487,0.443l-1.045,4.012l-1.874-0.207c-1.64-0.152-3.922-0.457-5.438-1.924
		c-1.3-1.286-1.534-3.016-1.832-4.455l-1.135-5.243c-0.249-1.038-0.649-2.504-1.604-3.361c-1.01-0.941-2.408-1.053-3.342-1.053
		h-3.272v15.786h-5.686v-34.214h5.686v13.793h3.757c1.114,0,2.429-0.083,3.459-1.079c0.899-0.898,1.142-2.241,1.383-3.209
		l0.948-4.165c0.249-1.135,0.651-2.781,1.827-3.888c1.141-1.148,2.427-1.301,4.392-1.605l2.041-0.29L541.979,174.423z"/>
</g>
</svg>
