<?xml version="1.0" encoding="utf-8"?>
<!-- Generator: Adobe Illustrator 16.0.0, SVG Export Plug-In . SVG Version: 6.00 Build 0)  -->
<!DOCTYPE svg PUBLIC "-//W3C//DTD SVG 1.1//EN" "http://www.w3.org/Graphics/SVG/1.1/DTD/svg11.dtd">
<svg version="1.1" id="Layer_1" xmlns="http://www.w3.org/2000/svg" xmlns:xlink="http://www.w3.org/1999/xlink" x="0px" y="0px"
	 width="261.39px" height="98.232px" viewBox="0 0 261.39 98.232" enable-background="new 0 0 261.39 98.232" xml:space="preserve">
<g>
	<defs>
		<rect id="SVGID_1_" y="0" width="261.39" height="98.232"/>
	</defs>
	<clipPath id="SVGID_2_">
		<use xlink:href="#SVGID_1_"  overflow="visible"/>
	</clipPath>
	<path clip-path="url(#SVGID_2_)" fill="#FFFFFF" d="M236.56,39.798c-0.505,0-0.953,0.101-1.114,0.89c0,0-1.414,3.315-3.907,4.59
		c-1.14,0.581-1.626,0.883-4.204,0.808h-13.021c-7.039-0.505-7.766-7.872-7.766-7.872c0-0.897-0.098-2.084-0.098-2.595V27.26
		c0.192-7.532,6.041-9.255,6.041-9.255c0.841-0.272,2.258-0.272,2.757-0.272h13.018c5.918,0.19,7.468,6.642,7.468,6.642
		c0.231,0.461,0.604,0.808,1.105,0.808h23.643c0.498,0,0.909-0.41,0.909-0.915v-2.532C261.049,4.23,245.133-0.013,241.824,0.069
		C240.938,0.082,239.701,0,239.198,0h-36.779c-11.197,0.05-17.548,8.308-19.801,13.971c-0.982,2.487-1.282,4.634-1.326,5.53
		c-0.045,1.023-0.134,2.658-0.134,3.163v19.401c1.023,18.529,17.094,21.641,19.518,21.723c0.805,0.019,2.162,0.076,2.674,0.076
		h36.774c16.796-0.884,21.133-15.613,21.206-20.316c0.024-1.37,0.06-1.9,0.06-2.405v-0.417c0-0.511-0.411-0.928-0.909-0.928H236.56z
		"/>
	<path clip-path="url(#SVGID_2_)" fill="#FFFFFF" d="M93.015,1.667c0.252-0.442,0.047-0.789-0.452-0.789H1.023
		c-0.505,0-0.919,0.41-0.919,0.909V19.4c0,0.505,0.414,0.915,0.919,0.915h22.446c0.502,0,0.913,0.41,0.913,0.916v40.782
		c0,0.506,0.413,0.916,0.915,0.916h35.335c0.505,0,0.915-0.41,0.915-0.916V21.231c0-0.506,0.407-0.916,0.906-0.916h18.535
		c0.496,0,1.121-0.36,1.38-0.795L93.015,1.667z"/>
	<path clip-path="url(#SVGID_2_)" fill="#FFFFFF" d="M107.778,0.877c-0.505,0-1.193,0.303-1.525,0.676
		c0,0-16.231,16.136-16.19,38.573c0.016,13.857,5.682,22.077,5.682,22.077c0.316,0.386,0.976,0.727,1.474,0.727h23.157
		c0.502,0,0.65-0.316,0.334-0.707c0,0-7.468-9.508-7.332-22.444c0.11-11.609,6.96-18.895,6.96-18.895
		c0.293-0.404,0.96-0.732,1.452-0.732h14.571c0.502,0,0.915,0.41,0.915,0.915v40.947c0,0.506,0.407,0.916,0.912,0.916h32.92
		c0.511,0,0.925-0.41,0.925-0.916V1.787c0-0.499-0.414-0.909-0.925-0.909H107.778z"/>
	<path clip-path="url(#SVGID_2_)" fill="#CF0A2C" d="M113.378,39.786c0,2.576,0.278,5,0.732,7.26h47.254l6.212-9.779h-54.094
		C113.413,38.087,113.378,38.926,113.378,39.786"/>
	<path clip-path="url(#SVGID_2_)" fill="#CF0A2C" d="M115.044,30.063c-0.638,1.812-1.149,3.813-1.436,5.985h54.754l3.797-5.985
		H115.044z"/>
	<path clip-path="url(#SVGID_2_)" fill="#FFFFFF" d="M190.022,87.355h3.835c-0.704-2.355-1.332-4.609-1.84-6.769
		C191.352,82.929,190.673,85.19,190.022,87.355"/>
	<path clip-path="url(#SVGID_2_)" fill="#FFFFFF" d="M38.725,87.355h3.829c-0.695-2.355-1.335-4.609-1.847-6.769
		C40.047,82.929,39.369,85.19,38.725,87.355"/>
	<path clip-path="url(#SVGID_2_)" fill="#FFFFFF" d="M167.756,86.401h-2.21v5.095h2.21c1.174,0,1.854-0.348,2.21-0.7
		c0.593-0.549,0.686-1.345,0.686-1.856c0-0.979-0.345-1.541-0.686-1.862C169.36,86.497,168.454,86.401,167.756,86.401"/>
	<path clip-path="url(#SVGID_2_)" fill="#FFFFFF" d="M113.482,79.772c-2.689,0-3.681,2.121-3.681,5.847
		c0,4.015,1.02,6.25,3.747,6.25c2.324,0,3.52-1.717,3.52-5.915C117.068,82.159,116.276,79.772,113.482,79.772"/>
	<path clip-path="url(#SVGID_2_)" fill="#FFFFFF" d="M260.367,72.089H0.916C0.411,72.089,0,72.514,0,73.005v24.307
		c0,0.511,0.411,0.921,0.916,0.921h259.452c0.505,0,0.911-0.41,0.911-0.921V73.005C261.278,72.514,260.872,72.089,260.367,72.089
		 M24.145,80.177h-3.927v13.447h-2.595V80.177h-3.942v-2.158h10.808L24.145,80.177z M44.401,93.624l-1.263-4.104h-5.051
		l-1.259,4.104h-2.686l5.12-15.613h2.992l4.991,15.613H44.401z M65.878,93.852c-2.077,0-3.725-0.789-4.934-2.261
		c-1.177-1.414-1.793-3.314-1.793-5.499c0-1.861,0.347-3.408,1.039-4.716c1.18-2.234,3.32-3.592,5.757-3.592
		c1.516,0,2.958,0.455,3.883,1.225l-1.2,1.686c-0.826-0.612-1.695-0.877-2.66-0.877c-1.333,0-2.437,0.675-3.11,1.875
		c-0.539,0.947-0.814,2.254-0.814,4.091c0,1.862,0.196,2.948,0.609,3.832c0.672,1.483,1.963,2.203,3.476,2.203
		c1.108,0,1.922-0.284,2.793-0.991l1.225,1.648C68.924,93.403,67.551,93.852,65.878,93.852 M94.486,93.832l-0.855-0.095
		c-0.745-0.069-1.787-0.208-2.488-0.877c-0.584-0.587-0.698-1.377-0.827-2.033l-0.524-2.393c-0.117-0.474-0.293-1.143-0.723-1.534
		c-0.47-0.429-1.104-0.48-1.537-0.48h-1.487v7.204h-2.591V78.011h2.591v6.295h1.724c0.492,0,1.098-0.037,1.575-0.492
		c0.407-0.41,0.511-1.023,0.622-1.465l0.435-1.9c0.117-0.518,0.297-1.269,0.834-1.774c0.527-0.523,1.111-0.593,2.007-0.731
		l0.928-0.133l0.502,1.779l-0.726,0.185c-0.296,0.063-0.637,0.138-0.884,0.391c-0.224,0.215-0.381,0.645-0.473,1.01l-0.404,1.616
		c-0.155,0.657-0.291,1.313-0.928,1.901c-0.291,0.271-0.676,0.492-1.102,0.624v0.051c0.313,0.114,0.647,0.271,0.982,0.562
		c0.568,0.544,0.795,1.111,0.982,1.794l0.7,2.5c0.152,0.573,0.31,0.922,0.515,1.104c0.183,0.183,0.612,0.378,0.947,0.473
		l0.682,0.202L94.486,93.832z M113.548,93.852c-4.444,0-6.638-3.436-6.638-8.05c0-5.127,2.62-8.018,6.531-8.018
		c4.391,0,6.512,3.504,6.512,8.037C119.953,90.694,117.608,93.852,113.548,93.852 M146.418,93.624l-0.724-9.678
		c-0.069-0.991-0.109-2.235-0.109-2.702c-0.111,0.511-0.316,1.509-0.607,2.5l-2.847,9.88h-2.206l-2.602-9.451
		c-0.294-1.034-0.594-2.437-0.685-2.961c0,0.524-0.082,2.021-0.142,2.98l-0.692,9.432h-2.544l1.424-15.613h3.456l2.394,8.852
		c0.35,1.307,0.488,2.178,0.577,2.658c0.072-0.48,0.271-1.54,0.568-2.62l2.456-8.89h3.45l1.389,15.613H146.418z M172.434,92.178
		c-1.297,1.339-3.323,1.446-4.835,1.446h-4.644V78.019h9.378l-0.334,2.113h-6.452v4.155h2.165c1.171,0,3.166,0,4.558,1.351
		c1.105,1.086,1.267,2.551,1.267,3.435C173.536,89.943,173.391,91.188,172.434,92.178 M195.701,93.624l-1.26-4.104h-5.05
		l-1.263,4.104h-2.69l5.12-15.613h3.006l4.987,15.613H195.701z M221.648,93.624h-2.595v-7.222h-5.322v7.222h-2.592V78.011h2.592
		v6.276h5.322v-6.276h2.595V93.624z M247.122,93.832l-0.855-0.095c-0.749-0.069-1.79-0.208-2.48-0.877
		c-0.595-0.587-0.701-1.377-0.838-2.033l-0.517-2.393c-0.114-0.474-0.297-1.143-0.733-1.534c-0.461-0.429-1.099-0.48-1.524-0.48
		h-1.493v7.204h-2.594V78.011h2.594v6.295h1.715c0.508,0,1.107-0.037,1.578-0.492c0.41-0.41,0.521-1.023,0.631-1.465l0.434-1.9
		c0.112-0.518,0.296-1.269,0.833-1.774c0.521-0.523,1.107-0.593,2.004-0.731l0.932-0.133l0.498,1.779l-0.726,0.185
		c-0.29,0.063-0.632,0.138-0.877,0.391c-0.231,0.215-0.387,0.645-0.478,1.01l-0.407,1.616c-0.154,0.657-0.287,1.313-0.925,1.901
		c-0.287,0.271-0.676,0.492-1.102,0.624v0.051c0.315,0.114,0.653,0.271,0.976,0.562c0.58,0.544,0.808,1.111,0.988,1.794l0.693,2.5
		c0.152,0.573,0.316,0.922,0.524,1.104c0.183,0.183,0.606,0.378,0.947,0.473l0.679,0.202L247.122,93.832z"/>
</g>
</svg>
