<?xml version="1.0" encoding="utf-8"?>
<!-- Generator: Adobe Illustrator 16.0.0, SVG Export Plug-In . SVG Version: 6.00 Build 0)  -->
<!DOCTYPE svg PUBLIC "-//W3C//DTD SVG 1.1//EN" "http://www.w3.org/Graphics/SVG/1.1/DTD/svg11.dtd">
<svg version="1.1" id="Layer_1" xmlns="http://www.w3.org/2000/svg" xmlns:xlink="http://www.w3.org/1999/xlink" x="0px" y="0px"
	 width="780.5px" height="736.5px" viewBox="0 0 780.5 736.5" enable-background="new 0 0 780.5 736.5" xml:space="preserve">
<g>
	<g>
		<defs>
			<rect id="SVGID_1_" x="158.682" y="123.455" width="480" height="480"/>
		</defs>
		<clipPath id="SVGID_2_">
			<use xlink:href="#SVGID_1_"  overflow="visible"/>
		</clipPath>
		<path clip-path="url(#SVGID_2_)" fill="#16225F" d="M598.682,123.455h-400c-22.056,0-40,17.943-40,40v304
			c0,22.056,17.944,40,40,40h144v24c0,2.128,0.84,4.159,2.344,5.655l29.656,29.656v28.688c0,4.424,3.576,8,8,8h96
			c22.057,0,40-17.944,40-40v-56h80c22.057,0,40-17.944,40-40v-304C638.682,141.399,620.738,123.455,598.682,123.455
			 M174.682,467.455v-304c0-13.232,10.769-24,24-24h16v352h-16C185.45,491.455,174.682,480.687,174.682,467.455 M502.682,563.455
			c0,13.231-10.768,24-24,24h-88v-24c0-2.129-0.84-4.16-2.344-5.656l-29.656-29.656v-49.377l16-16.016v36.705h16V337.935v-6.479
			c0-3.168,1.881-5.849,4.553-7.145c0.119-0.056,0.207-0.168,0.336-0.224c0.191-0.08,0.416-0.056,0.615-0.128
			c0.801-0.265,1.617-0.504,2.504-0.504c4.408,0.008,7.992,3.592,7.992,8v6.479v81.504v40.017h16v-40.017
			c0-4.407,3.576-7.983,8.016-7.983c4.408,0,7.984,3.576,7.984,7.983v40.017h16v-40.017c0-4.407,3.576-7.983,8.016-7.983
			c4.408,0,7.984,3.576,7.984,7.983v40.017h8l8,0.008l0.033-40.032c0-4.398,3.584-7.976,7.982-7.976
			c4.408,0,7.984,3.576,7.984,7.983V563.455L502.682,563.455z M422.41,327.815c-0.031-0.224-0.119-0.424-0.16-0.64
			c-0.111-0.632-0.295-1.232-0.455-1.84c-0.225-0.848-0.465-1.688-0.775-2.496c-0.232-0.608-0.512-1.184-0.793-1.76
			c-0.367-0.761-0.76-1.496-1.199-2.208c-0.344-0.553-0.705-1.08-1.088-1.601c-0.496-0.672-1.023-1.312-1.592-1.928
			c-0.434-0.472-0.857-0.928-1.328-1.368c-0.625-0.584-1.289-1.111-1.977-1.632c-0.488-0.368-0.969-0.744-1.488-1.08
			c-0.76-0.488-1.576-0.896-2.393-1.296c-0.512-0.256-1.008-0.536-1.545-0.752c-0.951-0.384-1.951-0.656-2.959-0.92
			c-0.457-0.12-0.896-0.288-1.359-0.384c-1.488-0.28-3.031-0.456-4.615-0.456h-0.008h-0.009c-0.048,0-0.096,0.016-0.151,0.016
			c-1.521,0.008-3.008,0.168-4.449,0.448c-0.543,0.104-1.039,0.296-1.567,0.439c-0.928,0.248-1.856,0.496-2.743,0.856
			c-0.585,0.232-1.121,0.536-1.681,0.816c-0.769,0.384-1.536,0.768-2.256,1.224c-0.544,0.352-1.048,0.744-1.568,1.136
			c-0.655,0.496-1.296,1.008-1.903,1.568c-0.48,0.448-0.92,0.92-1.369,1.408c-0.551,0.607-1.071,1.231-1.56,1.888
			c-0.392,0.528-0.752,1.063-1.104,1.616c-0.439,0.704-0.823,1.439-1.191,2.191c-0.279,0.584-0.561,1.168-0.792,1.776
			c-0.312,0.808-0.552,1.64-0.776,2.488c-0.16,0.615-0.344,1.216-0.455,1.848c-0.041,0.216-0.129,0.416-0.16,0.64
			c-33.09-10.216-56.258-40.968-56.258-76.359c0-44.112,35.889-80,80-80s80,35.888,80,80
			C478.682,286.847,455.514,317.599,422.41,327.815 M494.697,395.455c-6.168,0-11.742,2.408-16,6.248
			c-4.264-3.84-9.848-6.248-16.031-6.248c-6.168,0-11.734,2.399-15.982,6.231c-4.256-3.832-9.84-6.231-16.018-6.231
			c-2.814,0-5.473,0.576-7.982,1.472v-52.632c42.088-10.816,72-48.8,72-92.832c0-52.937-43.064-96-96-96c-52.937,0-96,43.063-96,96
			c0,44.032,29.912,82.024,72,92.832v95.823l-29.656,29.688c-1.506,1.488-2.346,3.528-2.346,5.648v16h-112v-352h336v352h-48v-72.017
			C518.682,406.215,507.922,395.455,494.697,395.455 M622.682,467.455c0,13.231-10.768,24-24,24h-16v-352h16
			c13.232,0,24,10.768,24,24V467.455z"/>
	</g>
	<g>
		<defs>
			
				<rect id="SVGID_3_" x="65.473" y="-50.704" transform="matrix(0.5547 -0.8321 0.8321 0.5547 -21.4772 338.4835)" width="480.019" height="480.02"/>
		</defs>
		<clipPath id="SVGID_4_">
			<use xlink:href="#SVGID_3_"  overflow="visible"/>
		</clipPath>
		
			<rect x="340.99" y="243.449" transform="matrix(0.5547 -0.8321 0.8321 0.5547 -31.68 443.704)" clip-path="url(#SVGID_4_)" fill="#16225F" width="115.385" height="16"/>
	</g>
	<g>
		<defs>
			<rect id="SVGID_5_" x="158.682" y="123.455" width="480" height="480"/>
		</defs>
		<clipPath id="SVGID_6_">
			<use xlink:href="#SVGID_5_"  overflow="visible"/>
		</clipPath>
		<path clip-path="url(#SVGID_6_)" fill="#16225F" d="M462.682,275.455c0-13.232-10.768-24-24-24s-24,10.768-24,24
			c0,13.231,10.768,24,24,24S462.682,288.687,462.682,275.455 M438.682,283.455c-4.416,0-8-3.584-8-8s3.584-8,8-8s8,3.584,8,8
			S443.098,283.455,438.682,283.455"/>
	</g>
	<g>
		<defs>
			<rect id="SVGID_7_" x="158.682" y="123.455" width="480" height="480"/>
		</defs>
		<clipPath id="SVGID_8_">
			<use xlink:href="#SVGID_7_"  overflow="visible"/>
		</clipPath>
		<path clip-path="url(#SVGID_8_)" fill="#16225F" d="M382.682,227.455c0-13.232-10.768-24-24-24c-13.231,0-24,10.768-24,24
			c0,13.231,10.769,24,24,24C371.914,251.455,382.682,240.687,382.682,227.455 M358.682,235.455c-4.416,0-8-3.584-8-8s3.584-8,8-8
			s8,3.584,8,8S363.098,235.455,358.682,235.455"/>
	</g>
</g>
</svg>
