<?xml version="1.0" encoding="utf-8"?>
<!-- Generator: Adobe Illustrator 16.0.0, SVG Export Plug-In . SVG Version: 6.00 Build 0)  -->
<!DOCTYPE svg PUBLIC "-//W3C//DTD SVG 1.1//EN" "http://www.w3.org/Graphics/SVG/1.1/DTD/svg11.dtd">
<svg version="1.1" id="Layer_1" xmlns="http://www.w3.org/2000/svg" xmlns:xlink="http://www.w3.org/1999/xlink" x="0px" y="0px"
	 width="512px" height="511.998px" viewBox="0 0 512 511.998" enable-background="new 0 0 512 511.998" xml:space="preserve">
<g>
	<g>
		<defs>
			<rect id="SVGID_1_" y="0" width="512" height="511.998"/>
		</defs>
		<clipPath id="SVGID_2_">
			<use xlink:href="#SVGID_1_"  overflow="visible"/>
		</clipPath>
		<path clip-path="url(#SVGID_2_)" fill="#FFFFFF" d="M361.317,125.321c-2.63,0-5.21-1.06-7.07-2.93
			c-1.861-1.86-2.931-4.432-2.931-7.071c0-2.63,1.069-5.21,2.931-7.07c1.86-1.859,4.44-2.931,7.07-2.931
			c2.641,0,5.21,1.07,7.071,2.931c1.868,1.86,2.93,4.44,2.93,7.07c0,2.641-1.062,5.211-2.93,7.071
			C366.527,124.261,363.956,125.321,361.317,125.321"/>
	</g>
	<g>
		<defs>
			<rect id="SVGID_3_" y="0" width="512" height="511.998"/>
		</defs>
		<clipPath id="SVGID_4_">
			<use xlink:href="#SVGID_3_"  overflow="visible"/>
		</clipPath>
		<path clip-path="url(#SVGID_4_)" fill="#FFFFFF" d="M246.188,32.164c-5.523,0-10.001,4.479-10.001,10.001
			s4.478,10.001,10.001,10.001h0.081c5.523,0,9.959-4.479,9.959-10.001C256.229,36.642,251.711,32.164,246.188,32.164"/>
	</g>
	<g>
		<defs>
			<rect id="SVGID_5_" y="0" width="512" height="511.998"/>
		</defs>
		<clipPath id="SVGID_6_">
			<use xlink:href="#SVGID_5_"  overflow="visible"/>
		</clipPath>
		<path clip-path="url(#SVGID_6_)" fill="#FFFFFF" d="M285.18,32.164c-5.523,0-10.001,4.479-10.001,10.001
			s4.477,10.001,10.001,10.001h0.08c5.521,0,9.961-4.479,9.961-10.001S290.702,32.164,285.18,32.164"/>
	</g>
	<g>
		<defs>
			<rect id="SVGID_7_" y="0" width="512" height="511.998"/>
		</defs>
		<clipPath id="SVGID_8_">
			<use xlink:href="#SVGID_7_"  overflow="visible"/>
		</clipPath>
		<path clip-path="url(#SVGID_8_)" fill="#FFFFFF" d="M324.17,32.164c-5.523,0-10.002,4.479-10.002,10.001
			s4.479,10.001,10.002,10.001h0.08c5.522,0,9.961-4.479,9.961-10.001S329.694,32.164,324.17,32.164"/>
	</g>
	<g>
		<defs>
			<rect id="SVGID_9_" y="0" width="512" height="511.998"/>
		</defs>
		<clipPath id="SVGID_10_">
			<use xlink:href="#SVGID_9_"  overflow="visible"/>
		</clipPath>
		<path clip-path="url(#SVGID_10_)" fill="#FFFFFF" d="M467.17,32.163h-86.184c-5.521,0-10.001,4.479-10.001,10.001
			s4.479,10.001,10.001,10.001h86.184c5.521,0,10-4.479,10-10.001S472.692,32.163,467.17,32.163"/>
	</g>
	<g>
		<defs>
			<rect id="SVGID_11_" y="0" width="512" height="511.998"/>
		</defs>
		<clipPath id="SVGID_12_">
			<use xlink:href="#SVGID_11_"  overflow="visible"/>
		</clipPath>
		<path clip-path="url(#SVGID_12_)" fill="#FFFFFF" d="M315.112,263.094c1.859-1.859,2.93-4.439,2.93-7.07
			c0-2.63-1.069-5.21-2.93-7.07c-1.869-1.86-4.439-2.931-7.07-2.931c-2.641,0-5.211,1.069-7.08,2.931
			c-1.859,1.86-2.932,4.44-2.932,7.07c0,2.631,1.071,5.211,2.932,7.07c1.869,1.859,4.439,2.931,7.08,2.931
			C310.672,266.023,313.243,264.954,315.112,263.094"/>
	</g>
	<g>
		<defs>
			<rect id="SVGID_13_" y="0" width="512" height="511.998"/>
		</defs>
		<clipPath id="SVGID_14_">
			<use xlink:href="#SVGID_13_"  overflow="visible"/>
		</clipPath>
		<path clip-path="url(#SVGID_14_)" fill="#FFFFFF" d="M485.487,0H227.909c-14.62,0-26.513,11.895-26.513,26.514v212.999
			c0,14.617,11.894,26.512,26.513,26.512h35.941c5.523,0,10.001-4.479,10.001-10c0-5.522-4.478-10.001-10.001-10.001h-35.941
			c-3.591,0-6.511-2.92-6.511-6.51V84.329H492v155.184c0,3.59-2.92,6.51-6.512,6.51H349.445c-5.522,0-10,4.479-10,10.001
			s4.478,10,10,10h136.044c14.619,0,26.512-11.895,26.512-26.512V26.513C512,11.894,500.106,0,485.487,0 M221.396,64.327V26.513
			c0-3.592,2.92-6.512,6.511-6.512h257.58c3.592,0,6.512,2.92,6.512,6.512v37.814L221.396,64.327L221.396,64.327z"/>
	</g>
	<g>
		<defs>
			<rect id="SVGID_15_" y="0" width="512" height="511.998"/>
		</defs>
		<clipPath id="SVGID_16_">
			<use xlink:href="#SVGID_15_"  overflow="visible"/>
		</clipPath>
		<path clip-path="url(#SVGID_16_)" fill="#FFFFFF" d="M106.053,404.946c-2.63,0-5.21,1.069-7.071,2.931
			c-1.86,1.859-2.93,4.44-2.93,7.07s1.07,5.21,2.93,7.07c1.861,1.87,4.441,2.931,7.071,2.931c2.63,0,5.21-1.061,7.071-2.931
			c1.86-1.86,2.93-4.431,2.93-7.07c0-2.63-1.07-5.211-2.93-7.07C111.263,406.017,108.683,404.946,106.053,404.946"/>
	</g>
	<g>
		<defs>
			<rect id="SVGID_17_" y="0" width="512" height="511.998"/>
		</defs>
		<clipPath id="SVGID_18_">
			<use xlink:href="#SVGID_17_"  overflow="visible"/>
		</clipPath>
		<path clip-path="url(#SVGID_18_)" fill="#FFFFFF" d="M258.599,363.242c-15.123-15.12-39.729-15.122-54.853,0.002l-3.433,3.435
			c-4.769,4.771-12.528,4.77-17.297,0l-37.692-37.692c-2.31-2.31-3.582-5.382-3.582-8.646c0-3.268,1.272-6.337,3.583-8.648
			l3.433-3.434c15.124-15.123,15.124-39.73,0-54.854l-52.695-52.695c-15.122-15.122-39.729-15.122-54.852,0l-12.609,12.609
			c-38.136,38.137-38.136,100.19,0,138.326l39.376,39.375c3.905,3.905,10.238,3.905,14.144,0c3.906-3.905,3.906-10.237,0-14.144
			l-39.375-39.375c-27.38-27.38-30.04-70.251-8.001-100.651l49.023,49.021c1.953,1.951,4.513,2.929,7.072,2.929
			c2.559,0,5.119-0.978,7.072-2.929c3.905-3.905,3.905-10.238,0-14.145L48.196,222.01l7.16-7.158c7.323-7.325,19.24-7.325,26.565,0
			l52.694,52.692c7.325,7.323,7.325,19.24,0,26.565l-3.433,3.435c-6.088,6.089-9.441,14.183-9.441,22.792
			c0,8.607,3.352,16.703,9.44,22.792l37.692,37.691c12.568,12.566,33.016,12.566,45.584-0.001l3.434-3.435
			c7.324-7.324,19.241-7.324,26.566,0l52.694,52.693c3.549,3.549,5.502,8.267,5.502,13.281c0,5.019-1.953,9.734-5.503,13.282
			l-7.159,7.16l-47.962-47.961c-3.905-3.905-10.237-3.905-14.144,0c-3.905,3.904-3.905,10.237,0,14.144l47.269,47.27
			c-30.402,22.039-73.272,19.378-100.651-8.001l-36.208-36.209c-3.905-3.903-10.238-3.904-14.143,0
			c-3.905,3.904-3.906,10.236,0,14.145l36.208,36.208c19.068,19.068,44.116,28.604,69.163,28.604
			c25.048,0,50.097-9.533,69.165-28.604l12.607-12.607c7.326-7.325,11.361-17.065,11.361-27.428
			c0-10.359-4.035-20.101-11.361-27.426L258.599,363.242z"/>
	</g>
	<g>
		<defs>
			<rect id="SVGID_19_" y="0" width="512" height="511.998"/>
		</defs>
		<clipPath id="SVGID_20_">
			<use xlink:href="#SVGID_19_"  overflow="visible"/>
		</clipPath>
		<path clip-path="url(#SVGID_20_)" fill="#FFFFFF" d="M385.068,226.021c5.522,0,10.001-4.479,10.001-10.001
			s-4.479-10.001-10.001-10.001h-13.747v-55.505c0-5.522-4.479-10.001-10.001-10.001h-15.218c-5.523,0-10,4.479-10,10.001
			s4.477,10.001,10,10.001h5.217v45.504h-13.748c-5.523,0-10.001,4.479-10.001,10.001s4.478,10.001,10.001,10.001h23.749H385.068z"
			/>
	</g>
	<g>
		<defs>
			<rect id="SVGID_21_" y="0" width="512" height="511.998"/>
		</defs>
		<clipPath id="SVGID_22_">
			<use xlink:href="#SVGID_21_"  overflow="visible"/>
		</clipPath>
		<path clip-path="url(#SVGID_22_)" fill="#FFFFFF" d="M401.491,438.039h-10.002c-5.523,0-10.001,4.479-10.001,10.001
			c0,5.522,4.478,10.002,10.001,10.002h10.002c5.521,0,10-4.479,10-10.002C411.491,442.518,407.013,438.039,401.491,438.039"/>
	</g>
	<g>
		<defs>
			<rect id="SVGID_23_" y="0" width="512" height="511.998"/>
		</defs>
		<clipPath id="SVGID_24_">
			<use xlink:href="#SVGID_23_"  overflow="visible"/>
		</clipPath>
		<path clip-path="url(#SVGID_24_)" fill="#FFFFFF" d="M447.995,434.539c-3.074,0-5.822,1.387-7.658,3.566
			c-4.977,0.572-8.844,4.803-8.844,9.935c0,5.523,4.477,10.002,10,10.002h6.502c5.521,0,10-4.479,10-10.002v-3.5
			C457.995,439.017,453.516,434.539,447.995,434.539"/>
	</g>
	<g>
		<defs>
			<rect id="SVGID_25_" y="0" width="512" height="511.998"/>
		</defs>
		<clipPath id="SVGID_26_">
			<use xlink:href="#SVGID_25_"  overflow="visible"/>
		</clipPath>
		<path clip-path="url(#SVGID_26_)" fill="#FFFFFF" d="M447.995,284.525c-5.523,0-10.002,4.479-10.002,10.001v10.001
			c0,5.522,4.479,10.001,10.002,10.001c5.521,0,10-4.479,10-10.001v-10.001C457.995,289.004,453.516,284.525,447.995,284.525"/>
	</g>
	<g>
		<defs>
			<rect id="SVGID_27_" y="0" width="512" height="511.998"/>
		</defs>
		<clipPath id="SVGID_28_">
			<use xlink:href="#SVGID_27_"  overflow="visible"/>
		</clipPath>
		<path clip-path="url(#SVGID_28_)" fill="#FFFFFF" d="M447.995,334.53c-5.523,0-10.002,4.479-10.002,10.001v10.001
			c0,5.521,4.479,10.001,10.002,10.001c5.521,0,10-4.479,10-10.001v-10.001C457.995,339.009,453.516,334.53,447.995,334.53"/>
	</g>
	<g>
		<defs>
			<rect id="SVGID_29_" y="0" width="512" height="511.998"/>
		</defs>
		<clipPath id="SVGID_30_">
			<use xlink:href="#SVGID_29_"  overflow="visible"/>
		</clipPath>
		<path clip-path="url(#SVGID_30_)" fill="#FFFFFF" d="M447.995,384.534c-5.523,0-10.002,4.479-10.002,10.001v10.001
			c0,5.522,4.479,10.001,10.002,10.001c5.521,0,10-4.479,10-10.001v-10.001C457.995,389.013,453.516,384.534,447.995,384.534"/>
	</g>
	<g>
		<defs>
			<rect id="SVGID_31_" y="0" width="512" height="511.998"/>
		</defs>
		<clipPath id="SVGID_32_">
			<use xlink:href="#SVGID_31_"  overflow="visible"/>
		</clipPath>
		<path clip-path="url(#SVGID_32_)" fill="#FFFFFF" d="M113.964,74.007h10.001c5.523,0,10.001-4.478,10.001-10.001
			c0-5.521-4.478-10.001-10.001-10.001h-10.001c-5.523,0-10.001,4.479-10.001,10.001C103.963,69.529,108.441,74.007,113.964,74.007"
			/>
	</g>
	<g>
		<defs>
			<rect id="SVGID_33_" y="0" width="512" height="511.998"/>
		</defs>
		<clipPath id="SVGID_34_">
			<use xlink:href="#SVGID_33_"  overflow="visible"/>
		</clipPath>
		<path clip-path="url(#SVGID_34_)" fill="#FFFFFF" d="M163.969,74.007h10.001c5.523,0,10.001-4.478,10.001-10.001
			c0-5.521-4.478-10.001-10.001-10.001h-10.001c-5.523,0-10.001,4.479-10.001,10.001C153.967,69.529,158.446,74.007,163.969,74.007"
			/>
	</g>
	<g>
		<defs>
			<rect id="SVGID_35_" y="0" width="512" height="511.998"/>
		</defs>
		<clipPath id="SVGID_36_">
			<use xlink:href="#SVGID_35_"  overflow="visible"/>
		</clipPath>
		<path clip-path="url(#SVGID_36_)" fill="#FFFFFF" d="M63.959,124.011c5.523,0,10.001-4.479,10.001-10.001v-10.002
			c0-5.521-4.478-10.001-10.001-10.001c-5.524,0-10.001,4.479-10.001,10.001v10.002C53.958,119.534,58.437,124.011,63.959,124.011"
			/>
	</g>
	<g>
		<defs>
			<rect id="SVGID_37_" y="0" width="512" height="511.998"/>
		</defs>
		<clipPath id="SVGID_38_">
			<use xlink:href="#SVGID_37_"  overflow="visible"/>
		</clipPath>
		<path clip-path="url(#SVGID_38_)" fill="#FFFFFF" d="M63.959,174.016c5.523,0,10.001-4.479,10.001-10.001v-10.001
			c0-5.522-4.478-10.001-10.001-10.001c-5.524,0-10.001,4.479-10.001,10.001v10.001C53.958,169.539,58.437,174.016,63.959,174.016"
			/>
	</g>
	<g>
		<defs>
			<rect id="SVGID_39_" y="0" width="512" height="511.998"/>
		</defs>
		<clipPath id="SVGID_40_">
			<use xlink:href="#SVGID_39_"  overflow="visible"/>
		</clipPath>
		<path clip-path="url(#SVGID_40_)" fill="#FFFFFF" d="M63.959,74.007H73.96c5.523,0,10.001-4.478,10.001-10.001
			c0-5.521-4.478-10.001-10.001-10.001H63.959c-5.523,0-10.001,4.479-10.001,10.001C53.958,69.529,58.437,74.007,63.959,74.007"/>
	</g>
</g>
</svg>
