<?xml version="1.0" encoding="utf-8"?>
<!-- Generator: Adobe Illustrator 16.0.0, SVG Export Plug-In . SVG Version: 6.00 Build 0)  -->
<!DOCTYPE svg PUBLIC "-//W3C//DTD SVG 1.1//EN" "http://www.w3.org/Graphics/SVG/1.1/DTD/svg11.dtd">
<svg version="1.1" id="Layer_1" xmlns="http://www.w3.org/2000/svg" xmlns:xlink="http://www.w3.org/1999/xlink" x="0px" y="0px"
	 width="496.135px" height="496px" viewBox="0 0 496.135 496" enable-background="new 0 0 496.135 496" xml:space="preserve">
<g>
	<g>
		<defs>
			<rect id="SVGID_1_" y="0" width="496.135" height="496"/>
		</defs>
		<clipPath id="SVGID_2_">
			<use xlink:href="#SVGID_1_"  overflow="visible"/>
		</clipPath>
		<path clip-path="url(#SVGID_2_)" fill="#B1182E" d="M248.136,0c-136.745,0-248,111.256-248,248
			c0,38.84,9.272,77.359,26.68,111.791C-0.609,412.92-10.208,459.28,13.319,482.816c8.76,8.76,21.216,13.136,36.952,13.136
			c17.192,0,38.304-5.216,62.808-15.655l-6.264-14.721c-39.84,16.969-69.016,19.08-82.176,5.929
			c-29.048-29.049,17.024-129.769,107.176-234.272l-12.12-10.456c-32.28,37.416-61.792,77.792-83.456,115.712
			C23.071,312.937,16.135,280.576,16.135,248c0-127.929,104.072-232,232-232c127.929,0,232,104.071,232,232
			c0,79.632-40.345,150.008-101.647,191.808C369.319,420.688,349.959,408,328.136,408c-30.881,0-56,25.128-56,56
			c0,4.951,0.721,9.783,2,14.504c-8.535,0.96-17.208,1.496-26,1.496c-76.913,0-148.681-38.023-191.992-101.721l-13.232,9
			C89.199,455.36,165.919,496,248.136,496c136.743,0,248-111.248,248-248C496.136,111.256,384.879,0,248.136,0 M290.097,476.128
			c-1.266-3.929-1.961-7.983-1.961-12.128c0-22.057,17.943-40,40-40c16.209,0,30.535,9.791,36.713,24.376
			C342.097,461.68,316.896,471.207,290.097,476.128"/>
	</g>
	<g>
		<defs>
			<rect id="SVGID_3_" y="0" width="496.135" height="496"/>
		</defs>
		<clipPath id="SVGID_4_">
			<use xlink:href="#SVGID_3_"  overflow="visible"/>
		</clipPath>
		<path clip-path="url(#SVGID_4_)" fill="#B1182E" d="M164.823,136l-56,56l59.312,59.313l56-56v57.376l-16,16l-18.344-18.345
			l-11.312,11.313l29.656,29.656l32-32v-80l64-64v-24l16-16V40h-35.313l-16,16h-24l-64,64h-80l-32,32l29.656,29.655l11.312-11.312
			L91.447,152l16-16H164.823z M291.446,56h12.688v12.688l-8,8L283.446,64L291.446,56z M251.446,72h17.377l19.313,19.312v17.376
			l-24,24L227.447,96L251.446,72z M216.135,107.312L252.823,144l-84.688,84.688L131.447,192L216.135,107.312z"/>
	</g>
	<g>
		<defs>
			<rect id="SVGID_5_" y="0" width="496.135" height="496"/>
		</defs>
		<clipPath id="SVGID_6_">
			<use xlink:href="#SVGID_5_"  overflow="visible"/>
		</clipPath>
		<path clip-path="url(#SVGID_6_)" fill="#B1182E" d="M456.136,216c0-26.473-21.527-48-48-48s-48,21.527-48,48
			c0,26.472,21.527,48,48,48C434.607,264,456.136,242.472,456.136,216 M376.136,216c0-17.648,14.352-32,32-32
			c17.647,0,32,14.352,32,32c0,17.647-14.353,32-32,32C390.487,248,376.136,233.648,376.136,216"/>
	</g>
	<g>
		<defs>
			<rect id="SVGID_7_" y="0" width="496.135" height="496"/>
		</defs>
		<clipPath id="SVGID_8_">
			<use xlink:href="#SVGID_7_"  overflow="visible"/>
		</clipPath>
		<path clip-path="url(#SVGID_8_)" fill="#B1182E" d="M112.135,344c0,13.231,10.768,24,24,24c13.232,0,24-10.769,24-24
			c0-13.232-10.768-24-24-24C122.903,320,112.135,330.768,112.135,344 M136.135,336c4.408,0,8,3.584,8,8c0,4.415-3.592,8-8,8
			c-4.408,0-8-3.585-8-8C128.135,339.584,131.728,336,136.135,336"/>
	</g>
	<g>
		<defs>
			<rect id="SVGID_9_" y="0" width="496.135" height="496"/>
		</defs>
		<clipPath id="SVGID_10_">
			<use xlink:href="#SVGID_9_"  overflow="visible"/>
		</clipPath>
		<path clip-path="url(#SVGID_10_)" fill="#B1182E" d="M312.136,256c0-13.232-10.769-24-24-24c-13.232,0-24,10.768-24,24
			c0,13.231,10.768,24,24,24C301.367,280,312.136,269.232,312.136,256 M288.136,264c-4.408,0-8-3.584-8-8c0-4.408,3.592-8,8-8
			c4.407,0,8,3.592,8,8C296.136,260.416,292.543,264,288.136,264"/>
	</g>
	<g>
		<defs>
			<rect id="SVGID_11_" y="0" width="496.135" height="496"/>
		</defs>
		<clipPath id="SVGID_12_">
			<use xlink:href="#SVGID_11_"  overflow="visible"/>
		</clipPath>
		<rect x="200.13" y="352.002" clip-path="url(#SVGID_12_)" fill="#B1182E" width="16" height="16"/>
	</g>
	<g>
		<defs>
			<rect id="SVGID_13_" y="0" width="496.135" height="496"/>
		</defs>
		<clipPath id="SVGID_14_">
			<use xlink:href="#SVGID_13_"  overflow="visible"/>
		</clipPath>
		<rect x="360.13" y="320.002" clip-path="url(#SVGID_14_)" fill="#B1182E" width="16" height="16"/>
	</g>
	<g>
		<defs>
			<rect id="SVGID_15_" y="0" width="496.135" height="496"/>
		</defs>
		<clipPath id="SVGID_16_">
			<use xlink:href="#SVGID_15_"  overflow="visible"/>
		</clipPath>
		<rect x="232.13" y="440.002" clip-path="url(#SVGID_16_)" fill="#B1182E" width="16" height="16"/>
	</g>
	<g>
		<defs>
			<rect id="SVGID_17_" y="0" width="496.135" height="496"/>
		</defs>
		<clipPath id="SVGID_18_">
			<use xlink:href="#SVGID_17_"  overflow="visible"/>
		</clipPath>
		<rect x="344.13" y="112.002" clip-path="url(#SVGID_18_)" fill="#B1182E" width="16" height="16"/>
	</g>
	<g>
		<defs>
			<rect id="SVGID_19_" y="0" width="496.135" height="496"/>
		</defs>
		<clipPath id="SVGID_20_">
			<use xlink:href="#SVGID_19_"  overflow="visible"/>
		</clipPath>
		<rect x="288.13" y="312.002" clip-path="url(#SVGID_20_)" fill="#B1182E" width="16" height="16"/>
	</g>
	<g>
		<defs>
			<rect id="SVGID_21_" y="0" width="496.135" height="496"/>
		</defs>
		<clipPath id="SVGID_22_">
			<use xlink:href="#SVGID_21_"  overflow="visible"/>
		</clipPath>
		<rect x="144.13" y="56.002" clip-path="url(#SVGID_22_)" fill="#B1182E" width="16" height="16"/>
	</g>
</g>
</svg>
