<?xml version="1.0" encoding="utf-8"?>
<!-- Generator: Adobe Illustrator 20.0.0, SVG Export Plug-In . SVG Version: 6.00 Build 0)  -->
<svg version="1.1" id="Layer_1" xmlns="http://www.w3.org/2000/svg" xmlns:xlink="http://www.w3.org/1999/xlink" x="0px" y="0px"
	 viewBox="0 0 780.5 736.5" style="enable-background:new 0 0 780.5 736.5;" xml:space="preserve">
<style type="text/css">
	.st0{fill:#16225F;}
</style>
<g>
	<g>
		<g>
			<defs>
				<path id="SVGID_1_" d="M424.5-19.4"/>
			</defs>
			<clipPath id="SVGID_2_">
				<use xlink:href="#SVGID_1_"  style="overflow:visible;"/>
			</clipPath>
		</g>
	</g>
</g>
<g>
	<path class="st0" d="M654.9,346.9h-65.3c-7.3-23.2-27.9-39.7-52.1-41.8V144.3c0-17.7-14.3-32-32-32h-320c-17.7,0-32,14.3-32,32v224
		c0,17.7,14.3,32,32,32h96v21.3c0,5.9,4.8,10.7,10.7,10.7h10.7v181.3c0,5.9,4.8,10.7,10.7,10.7h320c5.9,0,10.7-4.8,10.7-10.7V432.3
		h10.7c5.9,0,10.7-4.8,10.7-10.7v-64C665.5,351.7,660.7,346.9,654.9,346.9z M566.9,346.9h-80c8.3-14,23.7-22.3,40-21.3
		C543.1,324.6,558.6,332.9,566.9,346.9z M292.2,346.9c-5.9,0-10.7,4.8-10.7,10.7v21.3h-96c-5.9,0-10.7-4.8-10.7-10.7v-224
		c0-5.9,4.8-10.7,10.7-10.7h320c5.9,0,10.7,4.8,10.7,10.7v160.9c-16.6,2-31.9,10.3-42.7,23.1c-13.3-15.6-32.8-24.4-53.3-24
		c-30.9,0-56.7,18.3-62.7,42.7H292.2z M460.2,346.9h-80c8.3-14,23.7-22.3,40-21.3C436.5,324.6,451.9,332.9,460.2,346.9z
		 M430.9,602.9H324.2V432.3h106.7V602.9z M494.9,602.9h-42.7V432.3h42.7V602.9z M622.9,602.9H516.2V432.3h106.7V602.9z M644.2,410.9
		H302.9v-42.7h341.3V410.9z"/>
	<path class="st0" d="M249.5,261.6c17.7,0,32-14.3,32-32s-14.3-32-32-32s-32,14.3-32,32S231.9,261.6,249.5,261.6z M249.5,218.9
		c5.9,0,10.7,4.8,10.7,10.7s-4.8,10.7-10.7,10.7s-10.7-4.8-10.7-10.7S243.6,218.9,249.5,218.9z"/>
	<path class="st0" d="M313.5,261.6c-17.7,0-32,14.3-32,32c0,17.7,14.3,32,32,32c17.7,0,32-14.3,32-32
		C345.5,275.9,331.2,261.6,313.5,261.6z M313.5,304.3c-5.9,0-10.7-4.8-10.7-10.7c0-5.9,4.8-10.7,10.7-10.7c5.9,0,10.7,4.8,10.7,10.7
		C324.2,299.5,319.4,304.3,313.5,304.3z"/>
	
		<rect x="208.8" y="248.3" transform="matrix(0.7071 -0.7071 0.7071 0.7071 -99.8338 276.8274)" class="st0" width="150.8" height="21.3"/>
	<rect x="430.9" y="154.9" class="st0" width="64" height="21.3"/>
	<rect x="430.9" y="197.6" class="st0" width="64" height="21.3"/>
	<rect x="196.2" y="154.9" class="st0" width="21.3" height="21.3"/>
</g>
</svg>
