<?xml version="1.0" encoding="iso-8859-1"?>
<!-- Generator: Adobe Illustrator 20.0.0, SVG Export Plug-In . SVG Version: 6.00 Build 0)  -->
<svg version="1.1" id="Capa_1" xmlns="http://www.w3.org/2000/svg" xmlns:xlink="http://www.w3.org/1999/xlink" x="0px" y="0px"
	 viewBox="-49 141 512 512" style="enable-background:new -49 141 512 512;" xml:space="preserve">
<g>
	<path style="fill:#16225F;" d="M324.333,653H89.667c-17.673,0-32-14.327-32-32V173c0-17.673,14.327-32,32-32h234.667
		c17.673,0,32,14.327,32,32v448C356.333,638.673,342.006,653,324.333,653z M89.667,162.333C83.776,162.333,79,167.109,79,173v448
		c0,5.891,4.776,10.667,10.667,10.667h234.667c5.891,0,10.667-4.776,10.667-10.667V173c0-5.891-4.776-10.667-10.667-10.667H89.667z"
		/>
	<rect x="68.333" y="205" style="fill:#16225F;" width="277.333" height="21.333"/>
	<rect x="68.333" y="567.667" style="fill:#16225F;" width="277.333" height="21.333"/>
	<rect x="175" y="173" style="fill:#16225F;" width="64" height="21.333"/>
	<rect x="100.333" y="525" style="fill:#16225F;" width="21.333" height="21.333"/>
	<rect x="100.333" y="482.333" style="fill:#16225F;" width="21.333" height="21.333"/>
	<rect x="143" y="525" style="fill:#16225F;" width="21.333" height="21.333"/>
	<path style="fill:#16225F;" d="M420.333,642.333H399V344.787c-25.859,3.262-44.622,26.223-42.667,52.213H335
		c0-59.061,48.843-74.667,74.667-74.667c5.891,0,10.667,4.776,10.667,10.667V642.333z"/>
	<path style="fill:#16225F;" d="M68.333,386.333H25.667c-17.673,0-32-14.327-32-32V333c0-17.673,14.327-32,32-32h42.667
		C74.224,301,79,305.776,79,311.667v64C79,381.558,74.224,386.333,68.333,386.333z M25.667,322.333
		C19.776,322.333,15,327.109,15,333v21.333C15,360.224,19.776,365,25.667,365h32v-42.667H25.667z"/>
	<path style="fill:#16225F;" d="M68.333,450.333H25.667c-17.673,0-32-14.327-32-32V397c0-17.673,14.327-32,32-32h42.667
		C74.224,365,79,369.776,79,375.667v64C79,445.558,74.224,450.333,68.333,450.333z M25.667,386.333
		C19.776,386.333,15,391.109,15,397v21.333C15,424.224,19.776,429,25.667,429h32v-42.667H25.667z"/>
	<path style="fill:#16225F;" d="M68.333,514.333H25.667c-17.673,0-32-14.327-32-32V461c0-17.673,14.327-32,32-32h42.667
		C74.224,429,79,433.776,79,439.667v64C79,509.558,74.224,514.333,68.333,514.333z M25.667,450.333
		C19.776,450.333,15,455.109,15,461v21.333C15,488.224,19.776,493,25.667,493h32v-42.667H25.667z"/>
	<path style="fill:#16225F;" d="M68.333,578.333H25.667c-17.673,0-32-14.327-32-32V525c0-17.673,14.327-32,32-32h42.667
		C74.224,493,79,497.776,79,503.667v64C79,573.558,74.224,578.333,68.333,578.333z M25.667,514.333
		C19.776,514.333,15,519.109,15,525v21.333C15,552.224,19.776,557,25.667,557h32v-42.667H25.667z"/>
	<path style="fill:#16225F;" d="M207,503.667c-58.91,0-106.667-47.756-106.667-106.667S148.09,290.333,207,290.333
		S313.667,338.09,313.667,397C313.602,455.884,265.884,503.602,207,503.667z M207,311.667c-47.128,0-85.333,38.205-85.333,85.333
		s38.205,85.333,85.333,85.333s85.333-38.205,85.333-85.333C292.28,349.894,254.106,311.72,207,311.667z"/>
</g>
</svg>
